<svg width="194" height="24" viewBox="0 0 194 24" fill="none" xmlns="http://www.w3.org/2000/svg">
<path d="M12 2L15.09 8.26L22 9.27L17 14.14L18.18 21.02L12 17.77L5.82 21.02L7 14.14L2 9.27L8.91 8.26L12 2Z" fill="#FBB13C"/>
<path d="M38 2L41.09 8.26L48 9.27L43 14.14L44.18 21.02L38 17.77L31.82 21.02L33 14.14L28 9.27L34.91 8.26L38 2Z" fill="#FBB13C"/>
<path d="M64 2L67.09 8.26L74 9.27L69 14.14L70.18 21.02L64 17.77L57.82 21.02L59 14.14L54 9.27L60.91 8.26L64 2Z" fill="#FBB13C"/>
<path d="M90 2L93.09 8.26L100 9.27L95 14.14L96.18 21.02L90 17.77L83.82 21.02L85 14.14L80 9.27L86.91 8.26L90 2Z" fill="#FBB13C"/>
<path d="M116 2L119.09 8.26L126 9.27L121 14.14L122.18 21.02L116 17.77L109.82 21.02L111 14.14L106 9.27L112.91 8.26L116 2Z" fill="#FBB13C"/>
<path d="M159 15C159 15.5304 158.789 16.0391 158.414 16.4142C158.039 16.7893 157.53 17 157 17H145L141 21V5C141 4.46957 141.211 3.96086 141.586 3.58579C141.961 3.21071 142.47 3 143 3H157C157.53 3 158.039 3.21071 158.414 3.58579C158.789 3.96086 159 4.46957 159 5V15Z" stroke="#070C11" stroke-width="2" stroke-linecap="round" stroke-linejoin="round"/>
<path d="M172.104 4.36L172.312 5.08C171.256 5.592 170.493 6.424 170.024 7.576C169.565 8.71733 169.336 10.1893 169.336 11.992C169.336 13.7627 169.565 15.224 170.024 16.376C170.493 17.528 171.256 18.376 172.312 18.92L172.104 19.64C170.632 19.0853 169.549 18.1947 168.856 16.968C168.163 15.7307 167.816 14.0773 167.816 12.008C167.816 9.928 168.163 8.26933 168.856 7.032C169.549 5.79467 170.632 4.904 172.104 4.36ZM177.517 5.96V17H175.917V8.424C175.917 8.25333 175.923 8.088 175.933 7.928C175.944 7.75733 175.965 7.58667 175.997 7.416L173.309 8.232L173.101 7.096L175.917 5.96H177.517ZM186.178 5.96C186.519 5.96 186.759 6.056 186.898 6.248C187.036 6.42933 187.058 6.68 186.962 7L183.522 17H181.938L184.978 8.168C185.031 8.01867 185.084 7.87467 185.138 7.736C185.202 7.58667 185.271 7.44267 185.346 7.304H179.922L179.858 5.96H186.178ZM188.156 4.36C189.639 4.904 190.727 5.79467 191.42 7.032C192.113 8.26933 192.46 9.928 192.46 12.008C192.46 14.0773 192.113 15.7307 191.42 16.968C190.727 18.1947 189.639 19.0853 188.156 19.64L187.98 18.92C189.015 18.376 189.767 17.528 190.236 16.376C190.705 15.224 190.94 13.7627 190.94 11.992C190.94 10.1893 190.705 8.71733 190.236 7.576C189.767 6.424 189.015 5.592 187.98 5.08L188.156 4.36Z" fill="#070C11"/>
</svg>
